<svg xmlns="http://www.w3.org/2000/svg" viewBox="0 0 900 280" width="900" height="280" role="img" aria-label="Languages and contribution heatmap. Python 81%, TypeScript 6%, Other 13%. 19 public repos.">
  <defs>
    <style>
      .mono   { font-family: "JetBrains Mono", ui-monospace, SFMono-Regular, Menlo, monospace; }
      .prompt { fill: #6dc97a; font-weight: 700; }
      .lang   { fill: #f5efe1; font-weight: 500; }
      .pct    { fill: #8a957d; }
      .legend { fill: #8a957d; }
    </style>
  </defs>
  <rect width="900" height="280" fill="#0e1410" rx="10"></rect>

  <g transform="translate(40, 30)">
    <text class="mono prompt" font-size="13">$ ./langs --top</text>
    
      <text x="0" y="28" class="mono lang" font-size="13">Python</text>
      <text x="118" y="28" class="mono pct" font-size="13">80%</text>
      <rect x="158" y="16" width="220" height="14" rx="2" fill="#1a221c"></rect>
      <rect x="158" y="16" width="176.0" height="14" rx="2" fill="#6dc97a"></rect>
      <text x="0" y="52" class="mono lang" font-size="13">TypeScript</text>
      <text x="118" y="52" class="mono pct" font-size="13">9%</text>
      <rect x="158" y="40" width="220" height="14" rx="2" fill="#1a221c"></rect>
      <rect x="158" y="40" width="19.8" height="14" rx="2" fill="#6dc97a"></rect>
      <text x="0" y="76" class="mono lang" font-size="13">JavaScript</text>
      <text x="118" y="76" class="mono pct" font-size="13">3%</text>
      <rect x="158" y="64" width="220" height="14" rx="2" fill="#1a221c"></rect>
      <rect x="158" y="64" width="6.6" height="14" rx="2" fill="#6dc97a"></rect>
      <text x="0" y="100" class="mono lang" font-size="13">Svelte</text>
      <text x="118" y="100" class="mono pct" font-size="13">3%</text>
      <rect x="158" y="88" width="220" height="14" rx="2" fill="#1a221c"></rect>
      <rect x="158" y="88" width="6.6" height="14" rx="2" fill="#6dc97a"></rect>
      <text x="0" y="124" class="mono lang" font-size="13">Shell</text>
      <text x="118" y="124" class="mono pct" font-size="13">3%</text>
      <rect x="158" y="112" width="220" height="14" rx="2" fill="#1a221c"></rect>
      <rect x="158" y="112" width="6.6" height="14" rx="2" fill="#6dc97a"></rect>
      <text x="0" y="148" class="mono lang" font-size="13">Other</text>
      <text x="118" y="148" class="mono pct" font-size="13">2%</text>
      <rect x="158" y="136" width="220" height="14" rx="2" fill="#1a221c"></rect>
      <rect x="158" y="136" width="4.4" height="14" rx="2" fill="#6dc97a"></rect>
  </g>

  <g transform="translate(490, 30)">
    <text class="mono prompt" font-size="13">$ ./heatmap --weeks 26</text>
    <g transform="translate(0, 16)"><rect x="0" y="0" width="11" height="11" rx="2" fill="#2d4a2f"></rect><rect x="14" y="0" width="11" height="11" rx="2" fill="#2d4a2f"></rect><rect x="28" y="0" width="11" height="11" rx="2" fill="#3d7040"></rect><rect x="42" y="0" width="11" height="11" rx="2" fill="#3d7040"></rect><rect x="56" y="0" width="11" height="11" rx="2" fill="#2d4a2f"></rect><rect x="70" y="0" width="11" height="11" rx="2" fill="#2d4a2f"></rect><rect x="84" y="0" width="11" height="11" rx="2" fill="#1a221c"></rect><rect x="98" y="0" width="11" height="11" rx="2" fill="#1a221c"></rect><rect x="112" y="0" width="11" height="11" rx="2" fill="#2d4a2f"></rect><rect x="126" y="0" width="11" height="11" rx="2" fill="#3d7040"></rect><rect x="140" y="0" width="11" height="11" rx="2" fill="#52a559"></rect><rect x="154" y="0" width="11" height="11" rx="2" fill="#52a559"></rect><rect x="168" y="0" width="11" height="11" rx="2" fill="#52a559"></rect><rect x="182" y="0" width="11" height="11" rx="2" fill="#3d7040"></rect><rect x="196" y="0" width="11" height="11" rx="2" fill="#3d7040"></rect><rect x="210" y="0" width="11" height="11" rx="2" fill="#2d4a2f"></rect><rect x="224" y="0" width="11" height="11" rx="2" fill="#3d7040"></rect><rect x="238" y="0" width="11" height="11" rx="2" fill="#3d7040"></rect><rect x="252" y="0" width="11" height="11" rx="2" fill="#52a559"></rect><rect x="266" y="0" width="11" height="11" rx="2" fill="#6dc97a"></rect><rect x="280" y="0" width="11" height="11" rx="2" fill="#6dc97a"></rect><rect x="294" y="0" width="11" height="11" rx="2" fill="#6dc97a"></rect><rect x="308" y="0" width="11" height="11" rx="2" fill="#52a559"></rect><rect x="322" y="0" width="11" height="11" rx="2" fill="#52a559"></rect><rect x="336" y="0" width="11" height="11" rx="2" fill="#3d7040"></rect><rect x="350" y="0" width="11" height="11" rx="2" fill="#52a559"></rect><rect x="0" y="14" width="11" height="11" rx="2" fill="#2d4a2f"></rect><rect x="14" y="14" width="11" height="11" rx="2" fill="#3d7040"></rect><rect x="28" y="14" width="11" height="11" rx="2" fill="#3d7040"></rect><rect x="42" y="14" width="11" height="11" rx="2" fill="#2d4a2f"></rect><rect x="56" y="14" width="11" height="11" rx="2" fill="#2d4a2f"></rect><rect x="70" y="14" width="11" height="11" rx="2" fill="#1a221c"></rect><rect x="84" y="14" width="11" height="11" rx="2" fill="#1a221c"></rect><rect x="98" y="14" width="11" height="11" rx="2" fill="#2d4a2f"></rect><rect x="112" y="14" width="11" height="11" rx="2" fill="#2d4a2f"></rect><rect x="126" y="14" width="11" height="11" rx="2" fill="#3d7040"></rect><rect x="140" y="14" width="11" height="11" rx="2" fill="#52a559"></rect><rect x="154" y="14" width="11" height="11" rx="2" fill="#52a559"></rect><rect x="168" y="14" width="11" height="11" rx="2" fill="#3d7040"></rect><rect x="182" y="14" width="11" height="11" rx="2" fill="#3d7040"></rect><rect x="196" y="14" width="11" height="11" rx="2" fill="#2d4a2f"></rect><rect x="210" y="14" width="11" height="11" rx="2" fill="#2d4a2f"></rect><rect x="224" y="14" width="11" height="11" rx="2" fill="#3d7040"></rect><rect x="238" y="14" width="11" height="11" rx="2" fill="#52a559"></rect><rect x="252" y="14" width="11" height="11" rx="2" fill="#52a559"></rect><rect x="266" y="14" width="11" height="11" rx="2" fill="#6dc97a"></rect><rect x="280" y="14" width="11" height="11" rx="2" fill="#6dc97a"></rect><rect x="294" y="14" width="11" height="11" rx="2" fill="#52a559"></rect><rect x="308" y="14" width="11" height="11" rx="2" fill="#52a559"></rect><rect x="322" y="14" width="11" height="11" rx="2" fill="#3d7040"></rect><rect x="336" y="14" width="11" height="11" rx="2" fill="#3d7040"></rect><rect x="350" y="14" width="11" height="11" rx="2" fill="#52a559"></rect><rect x="0" y="28" width="11" height="11" rx="2" fill="#2d4a2f"></rect><rect x="14" y="28" width="11" height="11" rx="2" fill="#3d7040"></rect><rect x="28" y="28" width="11" height="11" rx="2" fill="#3d7040"></rect><rect x="42" y="28" width="11" height="11" rx="2" fill="#2d4a2f"></rect><rect x="56" y="28" width="11" height="11" rx="2" fill="#2d4a2f"></rect><rect x="70" y="28" width="11" height="11" rx="2" fill="#1a221c"></rect><rect x="84" y="28" width="11" height="11" rx="2" fill="#1a221c"></rect><rect x="98" y="28" width="11" height="11" rx="2" fill="#2d4a2f"></rect><rect x="112" y="28" width="11" height="11" rx="2" fill="#3d7040"></rect><rect x="126" y="28" width="11" height="11" rx="2" fill="#3d7040"></rect><rect x="140" y="28" width="11" height="11" rx="2" fill="#52a559"></rect><rect x="154" y="28" width="11" height="11" rx="2" fill="#3d7040"></rect><rect x="168" y="28" width="11" height="11" rx="2" fill="#3d7040"></rect><rect x="182" y="28" width="11" height="11" rx="2" fill="#2d4a2f"></rect><rect x="196" y="28" width="11" height="11" rx="2" fill="#2d4a2f"></rect><rect x="210" y="28" width="11" height="11" rx="2" fill="#3d7040"></rect><rect x="224" y="28" width="11" height="11" rx="2" fill="#3d7040"></rect><rect x="238" y="28" width="11" height="11" rx="2" fill="#52a559"></rect><rect x="252" y="28" width="11" height="11" rx="2" fill="#6dc97a"></rect><rect x="266" y="28" width="11" height="11" rx="2" fill="#6dc97a"></rect><rect x="280" y="28" width="11" height="11" rx="2" fill="#52a559"></rect><rect x="294" y="28" width="11" height="11" rx="2" fill="#52a559"></rect><rect x="308" y="28" width="11" height="11" rx="2" fill="#3d7040"></rect><rect x="322" y="28" width="11" height="11" rx="2" fill="#3d7040"></rect><rect x="336" y="28" width="11" height="11" rx="2" fill="#52a559"></rect><rect x="350" y="28" width="11" height="11" rx="2" fill="#52a559"></rect><rect x="0" y="42" width="11" height="11" rx="2" fill="#3d7040"></rect><rect x="14" y="42" width="11" height="11" rx="2" fill="#3d7040"></rect><rect x="28" y="42" width="11" height="11" rx="2" fill="#2d4a2f"></rect><rect x="42" y="42" width="11" height="11" rx="2" fill="#2d4a2f"></rect><rect x="56" y="42" width="11" height="11" rx="2" fill="#1a221c"></rect><rect x="70" y="42" width="11" height="11" rx="2" fill="#1a221c"></rect><rect x="84" y="42" width="11" height="11" rx="2" fill="#2d4a2f"></rect><rect x="98" y="42" width="11" height="11" rx="2" fill="#2d4a2f"></rect><rect x="112" y="42" width="11" height="11" rx="2" fill="#3d7040"></rect><rect x="126" y="42" width="11" height="11" rx="2" fill="#52a559"></rect><rect x="140" y="42" width="11" height="11" rx="2" fill="#52a559"></rect><rect x="154" y="42" width="11" height="11" rx="2" fill="#3d7040"></rect><rect x="168" y="42" width="11" height="11" rx="2" fill="#3d7040"></rect><rect x="182" y="42" width="11" height="11" rx="2" fill="#2d4a2f"></rect><rect x="196" y="42" width="11" height="11" rx="2" fill="#2d4a2f"></rect><rect x="210" y="42" width="11" height="11" rx="2" fill="#3d7040"></rect><rect x="224" y="42" width="11" height="11" rx="2" fill="#52a559"></rect><rect x="238" y="42" width="11" height="11" rx="2" fill="#52a559"></rect><rect x="252" y="42" width="11" height="11" rx="2" fill="#6dc97a"></rect><rect x="266" y="42" width="11" height="11" rx="2" fill="#6dc97a"></rect><rect x="280" y="42" width="11" height="11" rx="2" fill="#52a559"></rect><rect x="294" y="42" width="11" height="11" rx="2" fill="#3d7040"></rect><rect x="308" y="42" width="11" height="11" rx="2" fill="#3d7040"></rect><rect x="322" y="42" width="11" height="11" rx="2" fill="#3d7040"></rect><rect x="336" y="42" width="11" height="11" rx="2" fill="#52a559"></rect><rect x="350" y="42" width="11" height="11" rx="2" fill="#6dc97a"></rect><rect x="0" y="56" width="11" height="11" rx="2" fill="#3d7040"></rect><rect x="14" y="56" width="11" height="11" rx="2" fill="#2d4a2f"></rect><rect x="28" y="56" width="11" height="11" rx="2" fill="#2d4a2f"></rect><rect x="42" y="56" width="11" height="11" rx="2" fill="#1a221c"></rect><rect x="56" y="56" width="11" height="11" rx="2" fill="#1a221c"></rect><rect x="70" y="56" width="11" height="11" rx="2" fill="#1a221c"></rect><rect x="84" y="56" width="11" height="11" rx="2" fill="#2d4a2f"></rect><rect x="98" y="56" width="11" height="11" rx="2" fill="#3d7040"></rect><rect x="112" y="56" width="11" height="11" rx="2" fill="#3d7040"></rect><rect x="126" y="56" width="11" height="11" rx="2" fill="#52a559"></rect><rect x="140" y="56" width="11" height="11" rx="2" fill="#3d7040"></rect><rect x="154" y="56" width="11" height="11" rx="2" fill="#3d7040"></rect><rect x="168" y="56" width="11" height="11" rx="2" fill="#2d4a2f"></rect><rect x="182" y="56" width="11" height="11" rx="2" fill="#2d4a2f"></rect><rect x="196" y="56" width="11" height="11" rx="2" fill="#3d7040"></rect><rect x="210" y="56" width="11" height="11" rx="2" fill="#3d7040"></rect><rect x="224" y="56" width="11" height="11" rx="2" fill="#52a559"></rect><rect x="238" y="56" width="11" height="11" rx="2" fill="#6dc97a"></rect><rect x="252" y="56" width="11" height="11" rx="2" fill="#6dc97a"></rect><rect x="266" y="56" width="11" height="11" rx="2" fill="#52a559"></rect><rect x="280" y="56" width="11" height="11" rx="2" fill="#52a559"></rect><rect x="294" y="56" width="11" height="11" rx="2" fill="#3d7040"></rect><rect x="308" y="56" width="11" height="11" rx="2" fill="#3d7040"></rect><rect x="322" y="56" width="11" height="11" rx="2" fill="#52a559"></rect><rect x="336" y="56" width="11" height="11" rx="2" fill="#52a559"></rect><rect x="350" y="56" width="11" height="11" rx="2" fill="#6dc97a"></rect><rect x="0" y="70" width="11" height="11" rx="2" fill="#2d4a2f"></rect><rect x="14" y="70" width="11" height="11" rx="2" fill="#2d4a2f"></rect><rect x="28" y="70" width="11" height="11" rx="2" fill="#1a221c"></rect><rect x="42" y="70" width="11" height="11" rx="2" fill="#1a221c"></rect><rect x="56" y="70" width="11" height="11" rx="2" fill="#1a221c"></rect><rect x="70" y="70" width="11" height="11" rx="2" fill="#2d4a2f"></rect><rect x="84" y="70" width="11" height="11" rx="2" fill="#2d4a2f"></rect><rect x="98" y="70" width="11" height="11" rx="2" fill="#3d7040"></rect><rect x="112" y="70" width="11" height="11" rx="2" fill="#52a559"></rect><rect x="126" y="70" width="11" height="11" rx="2" fill="#3d7040"></rect><rect x="140" y="70" width="11" height="11" rx="2" fill="#3d7040"></rect><rect x="154" y="70" width="11" height="11" rx="2" fill="#2d4a2f"></rect><rect x="168" y="70" width="11" height="11" rx="2" fill="#2d4a2f"></rect><rect x="182" y="70" width="11" height="11" rx="2" fill="#2d4a2f"></rect><rect x="196" y="70" width="11" height="11" rx="2" fill="#3d7040"></rect><rect x="210" y="70" width="11" height="11" rx="2" fill="#52a559"></rect><rect x="224" y="70" width="11" height="11" rx="2" fill="#52a559"></rect><rect x="238" y="70" width="11" height="11" rx="2" fill="#6dc97a"></rect><rect x="252" y="70" width="11" height="11" rx="2" fill="#52a559"></rect><rect x="266" y="70" width="11" height="11" rx="2" fill="#52a559"></rect><rect x="280" y="70" width="11" height="11" rx="2" fill="#3d7040"></rect><rect x="294" y="70" width="11" height="11" rx="2" fill="#3d7040"></rect><rect x="308" y="70" width="11" height="11" rx="2" fill="#3d7040"></rect><rect x="322" y="70" width="11" height="11" rx="2" fill="#52a559"></rect><rect x="336" y="70" width="11" height="11" rx="2" fill="#6dc97a"></rect><rect x="350" y="70" width="11" height="11" rx="2" fill="#6dc97a"></rect><rect x="0" y="84" width="11" height="11" rx="2" fill="#2d4a2f"></rect><rect x="14" y="84" width="11" height="11" rx="2" fill="#2d4a2f"></rect><rect x="28" y="84" width="11" height="11" rx="2" fill="#1a221c"></rect><rect x="42" y="84" width="11" height="11" rx="2" fill="#1a221c"></rect><rect x="56" y="84" width="11" height="11" rx="2" fill="#1a221c"></rect><rect x="70" y="84" width="11" height="11" rx="2" fill="#2d4a2f"></rect><rect x="84" y="84" width="11" height="11" rx="2" fill="#3d7040"></rect><rect x="98" y="84" width="11" height="11" rx="2" fill="#3d7040"></rect><rect x="112" y="84" width="11" height="11" rx="2" fill="#3d7040"></rect><rect x="126" y="84" width="11" height="11" rx="2" fill="#3d7040"></rect><rect x="140" y="84" width="11" height="11" rx="2" fill="#2d4a2f"></rect><rect x="154" y="84" width="11" height="11" rx="2" fill="#2d4a2f"></rect><rect x="168" y="84" width="11" height="11" rx="2" fill="#2d4a2f"></rect><rect x="182" y="84" width="11" height="11" rx="2" fill="#2d4a2f"></rect><rect x="196" y="84" width="11" height="11" rx="2" fill="#3d7040"></rect><rect x="210" y="84" width="11" height="11" rx="2" fill="#52a559"></rect><rect x="224" y="84" width="11" height="11" rx="2" fill="#52a559"></rect><rect x="238" y="84" width="11" height="11" rx="2" fill="#52a559"></rect><rect x="252" y="84" width="11" height="11" rx="2" fill="#52a559"></rect><rect x="266" y="84" width="11" height="11" rx="2" fill="#3d7040"></rect><rect x="280" y="84" width="11" height="11" rx="2" fill="#3d7040"></rect><rect x="294" y="84" width="11" height="11" rx="2" fill="#3d7040"></rect><rect x="308" y="84" width="11" height="11" rx="2" fill="#52a559"></rect><rect x="322" y="84" width="11" height="11" rx="2" fill="#52a559"></rect><rect x="336" y="84" width="11" height="11" rx="2" fill="#6dc97a"></rect><rect x="350" y="84" width="11" height="11" rx="2" fill="#6dc97a"></rect></g>
    <g transform="translate(0, 130)">
      <text class="mono legend" font-size="10">less</text>
      <rect x="32" y="-9" width="11" height="11" rx="2" fill="#1a221c"></rect>
      <rect x="46" y="-9" width="11" height="11" rx="2" fill="#2d4a2f"></rect>
      <rect x="60" y="-9" width="11" height="11" rx="2" fill="#3d7040"></rect>
      <rect x="74" y="-9" width="11" height="11" rx="2" fill="#52a559"></rect>
      <rect x="88" y="-9" width="11" height="11" rx="2" fill="#6dc97a"></rect>
      <text x="106" class="mono legend" font-size="10">more</text>
    </g>
  </g>

  <g transform="translate(40, 240)">
    <text class="mono prompt" font-size="12">$ ./summary</text>
    <text x="92" class="mono lang" font-size="12">19 public repos · top focus: <tspan fill="#ffd66d" font-weight="700">eval, mlx, agents</tspan></text>
  </g>
</svg>